<svg width="94" height="94" viewBox="0 0 94 94" fill="none" xmlns="http://www.w3.org/2000/svg">
<g clip-path="url(#clip0_7_9)">
<path d="M83.5555 13.0556H10.4444C9.90916 13.0556 9.38172 13.0947 8.86733 13.1731L8.85688 17.7529L1.72855 17.7425C0.598325 19.4497 -0.00297115 21.4525 -4.3328e-06 23.5V70.5C-4.3328e-06 73.27 1.10039 75.9266 3.0591 77.8853C5.01782 79.8441 7.6744 80.9445 10.4444 80.9445H83.5555C86.3256 80.9445 88.9822 79.8441 90.9409 77.8853C92.8996 75.9266 94 73.27 94 70.5V23.5C94 20.73 92.8996 18.0734 90.9409 16.1147C88.9822 14.156 86.3256 13.0556 83.5555 13.0556Z" fill="#00247D"/>
<path d="M23.5 67.9489L20.3092 70.8969L20.6252 66.5624L16.3299 65.9071L19.9149 63.4526L17.7503 59.6848L21.9046 60.959L23.5 56.9144L25.098 60.959L29.2523 59.6848L27.0851 63.4526L30.6727 65.9071L26.3774 66.5624L26.6934 70.8969L23.5 67.9489ZM72.9806 24.9674L70.8943 26.8944L71.1006 24.0588L68.2884 23.6306L70.6358 22.0247L69.2206 19.5598L71.9361 20.3928L72.9806 17.7477L74.0276 20.3928L76.7458 19.5598L75.3279 22.0247L77.6727 23.6306L74.8632 24.0588L75.0694 26.8944L72.9806 24.9674ZM62.5361 40.6341L60.4498 42.5637L60.6561 39.7281L57.8439 39.2998L60.1913 37.6914L58.7761 35.2265L61.4917 36.0594L62.5361 33.4144L63.5832 36.0594L66.3013 35.2265L64.8835 37.6914L67.2283 39.2998L64.4187 39.7281L64.625 42.5637L62.5361 40.6341ZM86.0361 35.4119L83.9498 37.3415L84.1561 34.5058L81.3439 34.0776L83.6913 32.4692L82.2761 30.0043L84.9917 30.8372L86.0361 28.1922L87.0832 30.8372L89.8013 30.0043L88.3835 32.4692L90.7283 34.0776L87.9187 34.5058L88.125 37.3415L86.0361 35.4119ZM72.9806 71.9674L70.8943 73.8971L71.1006 71.0614L68.2884 70.6332L70.6358 69.0247L69.2206 66.5598L71.9361 67.3928L72.9806 64.7477L74.0276 67.3928L76.7458 66.5598L75.3279 69.0247L77.6727 70.6332L74.8632 71.0614L75.0694 73.8971L72.9806 71.9674ZM80.9444 41.7778L81.7121 43.334L83.4276 43.5821L82.1873 44.791L82.4798 46.5013L80.9444 45.6944L79.4091 46.5013L79.7015 44.791L78.4613 43.5821L80.1768 43.334L80.9444 41.7778Z" fill="white"/>
<path d="M49.6111 47V13.0556H10.4444C9.60888 13.0556 8.86733 13.1731 8.86733 13.1731L8.85688 17.7529L1.72855 17.7425C1.72855 17.7425 1.61889 17.8966 1.39694 18.2778C0.479691 19.8652 -0.0021955 21.6666 -4.00262e-06 23.5V47H49.6111Z" fill="#00247D"/>
<path d="M49.6111 13.0556H43.5246L31.3333 21.5913V13.0556H18.2778V19.7635L8.86733 13.1731C7.29767 13.4075 5.80349 14.0018 4.50156 14.9094L16.779 23.5H12.2461L2.52494 16.6876C2.23826 17.0227 1.97231 17.375 1.72856 17.7425L9.95617 23.5H0V36.5556H10.1442L0 43.7779V47H8.70022L18.2778 40.2947V47H31.3333V38.4643L43.522 47H49.6111V41.7021L42.2608 36.5556H49.6111V23.5H42.2635L49.6111 18.3535V13.0556Z" fill="#EEEEEE"/>
<path d="M28.7222 13.0556H20.8889V26.1111H0V33.9444H20.8889V47H28.7222V33.9444H49.6111V26.1111H28.7222V13.0556Z" fill="#CF1B2B"/>
<path d="M49.6111 13.0556H45.7963L31.3333 23.1841V23.5H35.4354L49.6111 13.5726V13.0556ZM4.50156 14.9094C3.77054 15.4167 3.10643 16.0141 2.52495 16.6876L12.2461 23.5H16.7764L4.50156 14.9094ZM16.8077 36.5556L1.91656 47H6.42595L18.2778 38.7019V36.5556H16.8077ZM49.6111 46.483V43.2974L39.9839 36.5556H35.4328L49.6111 46.483Z" fill="#CF1B2B"/>
</g>
<defs>
<clipPath id="clip0_7_9">
<rect width="94" height="94" fill="white"/>
</clipPath>
</defs>
</svg>
