<svg width="94" height="94" viewBox="0 0 94 94" fill="none" xmlns="http://www.w3.org/2000/svg">
<path d="M94 70.5C94 73.27 92.8996 75.9266 90.9409 77.8853C88.9822 79.8441 86.3256 80.9445 83.5556 80.9445H10.4444C7.67441 80.9445 5.01782 79.8441 3.05911 77.8853C1.10039 75.9266 0 73.27 0 70.5V23.5C0 20.73 1.10039 18.0734 3.05911 16.1147C5.01782 14.156 7.67441 13.0556 10.4444 13.0556H83.5556C86.3256 13.0556 88.9822 14.156 90.9409 16.1147C92.8996 18.0734 94 20.73 94 23.5V70.5Z" fill="#009B3A"/>
<path d="M85.4564 47L47 76.046L8.54355 47L47 17.9514L85.4564 47Z" fill="#FEDF01"/>
<path d="M46.9373 63.6641C56.2503 63.6641 63.7999 56.1145 63.7999 46.8015C63.7999 37.4886 56.2503 29.939 46.9373 29.939C37.6244 29.939 30.0748 37.4886 30.0748 46.8015C30.0748 56.1145 37.6244 63.6641 46.9373 63.6641Z" fill="#002776"/>
<path d="M32.0566 38.8716C31.1808 40.522 30.5877 42.3075 30.3019 44.1539C40.7333 43.3967 54.8908 49.0915 60.9668 56.1519C62.0165 54.5748 62.7946 52.8097 63.2724 50.9193C55.7733 43.5873 42.6003 38.8298 32.0566 38.8716Z" fill="#CBE9D4"/>
<path d="M31.3333 47.6084H33.9445V50.2195H31.3333V47.6084ZM33.9445 52.8306H36.5556V55.4417H33.9445V52.8306Z" fill="#88C9F9"/>
<path d="M39.1667 47.6084H41.7778V50.2195H39.1667V47.6084ZM44.3889 50.2195H47V52.8306H44.3889V50.2195ZM54.8333 55.4417H57.4444V58.0528H54.8333V55.4417ZM47 58.0528H49.6111V60.6639H47V58.0528ZM54.8333 42.3862H57.4444V44.9973H54.8333V42.3862Z" fill="#55ACEE"/>
<path d="M49.6111 52.8306H52.2222V55.4417H49.6111V52.8306Z" fill="#3B88C3"/>
</svg>
