<svg width="94" height="94" viewBox="0 0 94 94" fill="none" xmlns="http://www.w3.org/2000/svg">
<path d="M23.5 16.1562H70.5V80.7812H23.5V16.1562Z" fill="#E6E7E8"/>
<path d="M14.6875 16.1562C4.95409 16.1562 0 23.3898 0 32.3125V64.625C0 73.5477 4.95409 80.7812 14.6875 80.7812H23.5V16.1562H14.6875ZM79.3125 16.1562H70.5V80.7812H79.3125C89.0459 80.7812 94 73.5477 94 64.625V32.3125C94 23.3898 89.0459 16.1562 79.3125 16.1562Z" fill="#EC1C24"/>
<path fill-rule="evenodd" clip-rule="evenodd" d="M65.0069 47.9415C64.3357 47.6374 64.2226 47.423 64.4223 46.6813C64.9202 44.8263 65.4328 42.9786 65.9366 41.1265C65.9792 40.9752 66.0174 40.8195 66.0747 40.5977C65.4519 40.7226 64.8703 40.8342 64.2887 40.9605C63.1122 41.2102 61.9431 41.4643 60.7695 41.7125C60.0028 41.8726 59.6518 41.6582 59.4344 40.9003C59.2303 40.1835 59.0291 39.4653 58.7015 38.6458C58.6266 38.7691 58.5723 38.9116 58.4768 39.0159C57.1329 40.5331 55.7817 42.0459 54.4289 43.5631C54.0103 44.0243 53.5447 44.2255 53.2157 44.0434C52.7325 43.7702 52.7502 43.287 52.8295 42.8361C53.1864 40.8665 53.5565 38.9013 53.9237 36.9317C54.1925 35.5026 54.4613 34.0809 54.7374 32.5916C54.5978 32.6444 54.5038 32.6709 54.4201 32.712C53.6593 33.1056 52.9073 33.5066 52.145 33.8914C51.2109 34.3599 50.7409 34.2057 50.2533 33.3024C49.2207 31.3887 48.197 29.4719 47.1674 27.5567C47.1146 27.4627 47.0793 27.3687 46.9985 27.2483L46.8296 27.5567C45.803 29.4719 44.7778 31.3887 43.7467 33.3024C43.2576 34.2057 42.7862 34.3614 41.852 33.8914C41.0897 33.5066 40.3377 33.1056 39.5769 32.712C39.4932 32.6709 39.3992 32.6444 39.2597 32.5916C39.5358 34.0809 39.8046 35.5026 40.0734 36.9317C40.4406 38.8954 40.8122 40.8606 41.1661 42.8361C41.2484 43.2885 41.2645 43.7717 40.7813 44.0434C40.4508 44.2255 39.9867 44.0243 39.5696 43.5631C38.2154 42.0459 36.8642 40.5331 35.5202 39.0159C35.4248 38.9116 35.369 38.7691 35.2955 38.6458C34.968 39.4668 34.7668 40.1835 34.5626 40.9003C34.3452 41.6582 33.9913 41.8726 33.2275 41.7125C32.054 41.4643 30.8834 41.2102 29.7084 40.9605C29.1268 40.8342 28.5452 40.7226 27.9224 40.5977C27.9797 40.8195 28.0164 40.9767 28.0605 41.1265C28.5642 42.9786 29.0768 44.8277 29.5747 46.6813C29.7745 47.4245 29.6614 47.6374 28.9902 47.9415C28.3689 48.2235 27.7491 48.5216 27.0926 48.8286C27.2101 48.9343 27.2762 48.9975 27.3496 49.0577C28.9123 50.3297 30.4751 51.5972 32.0408 52.8691C33.5551 54.0999 35.0635 55.3293 36.5792 56.5557C37.1094 56.9831 37.2842 57.503 37.0654 58.1522C36.942 58.5341 36.8318 58.916 36.7173 59.2993C36.5792 59.7502 36.4441 60.2041 36.2913 60.7196C37.7939 60.5066 39.2127 60.3083 40.6418 60.1101C42.3176 59.8795 43.992 59.643 45.6722 59.4315C46.248 59.3566 46.6754 59.7958 46.6519 60.3671C46.5256 63.3971 46.2333 66.8178 46.2127 69.6878H47.7843C47.7638 66.8178 47.4729 63.3986 47.3466 60.3671C47.3202 59.7958 47.7491 59.3566 48.3248 59.4315C50.0051 59.643 51.6794 59.8795 53.3553 60.1101C54.7844 60.3083 56.2032 60.5081 57.7057 60.7196C57.553 60.2041 57.4178 59.7502 57.2798 59.2993C57.1652 58.9145 57.0551 58.5341 56.9317 58.1522C56.7128 57.503 56.8876 56.9831 57.4178 56.5557C58.9351 55.3293 60.442 54.0999 61.9563 52.8691C63.522 51.5987 65.0847 50.3297 66.6475 49.0577C66.7209 48.9975 66.787 48.9343 66.9045 48.8286C66.2465 48.5202 65.6296 48.2235 65.0069 47.9415Z" fill="#EC1C24"/>
</svg>
