<svg width="37" height="35" viewBox="0 0 37 35" fill="none" xmlns="http://www.w3.org/2000/svg">
<g clip-path="url(#clip0_1_47)">
<path d="M36.4401 27.0224C36.4401 27.196 36.2832 27.3478 36.1039 27.3478C35.9245 27.3478 35.7676 27.196 35.7676 27.0224C35.7676 26.8489 35.9245 26.6969 36.1039 26.6969C36.2832 26.6753 36.4401 26.8272 36.4401 27.0224Z" fill="#4FCCB5"/>
<path d="M23.9712 13.6587C23.8593 13.6587 23.7697 13.6153 23.7026 13.5286C23.5907 13.3768 23.613 13.1815 23.7697 13.073L26.6797 10.9036C26.8363 10.7951 27.0378 10.8168 27.1497 10.9687C27.2616 11.1206 27.2393 11.3158 27.0826 11.4243L24.1726 13.5936C24.1279 13.637 24.0383 13.6587 23.9712 13.6587Z" fill="#4FCCB5"/>
<path d="M25.135 17.9325C24.8664 17.9325 24.6202 17.7372 24.5754 17.4769C24.5307 17.1732 24.7321 16.9128 25.0455 16.8478L29.4551 16.1535C29.7685 16.1102 30.0371 16.3054 30.1043 16.6091C30.1491 16.9128 29.9476 17.1732 29.6342 17.2382L25.2246 17.9325C25.2022 17.9325 25.1574 17.9325 25.135 17.9325Z" fill="#4FCCB5"/>
<path d="M14.9056 11.1858C14.637 11.1858 14.3908 10.9905 14.346 10.7302L13.5402 5.9792C13.4954 5.67549 13.6969 5.41515 14.0103 5.35007C14.3236 5.30668 14.5923 5.50193 14.6594 5.80566L15.4652 10.5567C15.51 10.8604 15.3085 11.1208 14.9952 11.1858C14.9504 11.1641 14.928 11.1858 14.9056 11.1858Z" fill="#4FCCB5"/>
<path d="M10.384 13.1598C10.2945 13.1598 10.2274 13.1382 10.1602 13.0731L7.6308 10.882C7.4965 10.7518 7.47412 10.5565 7.60842 10.4264C7.74273 10.2963 7.94418 10.2745 8.07849 10.4047L10.6079 12.5958C10.7422 12.726 10.7646 12.9213 10.6303 13.0514C10.5855 13.1165 10.4736 13.1598 10.384 13.1598Z" fill="#4FCCB5"/>
<path d="M2.68369 18.5835C2.37031 18.5835 2.12408 18.3448 2.12408 18.0628C2.12408 17.759 2.37031 17.5205 2.6613 17.4988L8.414 17.3685C8.72738 17.3685 8.97361 17.6072 8.99599 17.8893C8.99599 18.1929 8.74977 18.4316 8.45879 18.4533L2.68369 18.5835Z" fill="#4FCCB5"/>
<path d="M6.91452 27.0006C6.82498 27.0006 6.73545 26.979 6.66829 26.9139C6.53399 26.7837 6.53399 26.5885 6.66829 26.4583L9.24246 23.9201C9.37677 23.7899 9.57822 23.7899 9.71253 23.9201C9.84683 24.0502 9.84683 24.2455 9.71253 24.3757L7.16074 26.8922C7.09359 26.9573 7.00405 27.0006 6.91452 27.0006Z" fill="#4FCCB5"/>
<path d="M13.4058 30.8838C13.3834 30.8838 13.3386 30.8838 13.3162 30.8621C13.1372 30.8188 13.0252 30.6236 13.0924 30.45L14.3011 26.4583C14.3459 26.2847 14.5474 26.1762 14.7264 26.2413C14.9055 26.2847 15.0174 26.48 14.9503 26.6535L13.7415 30.6452C13.6968 30.7971 13.5625 30.8838 13.4058 30.8838Z" fill="#4FCCB5"/>
<path d="M20.9269 31.0142C20.6806 31.0142 20.4568 30.8623 20.3896 30.6237L19.1361 26.6536C19.0466 26.3716 19.2033 26.068 19.5167 25.9811C19.8077 25.8943 20.121 26.0463 20.2106 26.3499L21.4641 30.32C21.5536 30.602 21.3969 30.9057 21.0835 30.9925C21.0388 30.9925 20.994 31.0142 20.9269 31.0142Z" fill="#4FCCB5"/>
<path d="M28.5372 24.0721C28.4924 24.0721 28.4477 24.0721 28.3805 24.0287L24.9557 22.4017C24.7991 22.3149 24.7319 22.1196 24.7991 21.9678C24.8886 21.8159 25.0901 21.7508 25.2467 21.8159L28.6715 23.443C28.8282 23.5298 28.8953 23.725 28.8282 23.8769C28.7834 24.007 28.6715 24.0721 28.5372 24.0721Z" fill="#4FCCB5"/>
<path d="M31.9089 18.9255C33.3527 18.3917 34.0767 16.8246 33.5259 15.4254C32.9752 14.0261 31.3583 13.3244 29.9145 13.8582C28.4708 14.3921 27.7468 15.959 28.2976 17.3583C28.8483 18.7576 30.4652 19.4592 31.9089 18.9255Z" fill="#4FCCB5"/>
<path d="M16.1452 7.0068C17.3087 5.7652 17.2135 3.84449 15.9324 2.71679C14.6513 1.58909 12.6695 1.68141 11.5059 2.92301C10.3424 4.16462 10.4376 6.08532 11.7187 7.21303C12.9998 8.34073 14.9816 8.2484 16.1452 7.0068Z" fill="#4FCCB5"/>
<path d="M7.8547 11.9451C8.59644 11.9451 9.19775 11.3622 9.19775 10.6434C9.19775 9.9245 8.59644 9.34174 7.8547 9.34174C7.11296 9.34174 6.51166 9.9245 6.51166 10.6434C6.51166 11.3622 7.11296 11.9451 7.8547 11.9451Z" fill="#4FCCB5"/>
<path d="M2.86291 20.5793C4.34639 20.5793 5.549 19.4138 5.549 17.976C5.549 16.5383 4.34639 15.3727 2.86291 15.3727C1.37942 15.3727 0.176819 16.5383 0.176819 17.976C0.176819 19.4138 1.37942 20.5793 2.86291 20.5793Z" fill="#4FCCB5"/>
<path d="M4.58661 23.4429C4.87095 23.4429 5.10145 23.2196 5.10145 22.944C5.10145 22.6684 4.87095 22.445 4.58661 22.445C4.30228 22.445 4.07178 22.6684 4.07178 22.944C4.07178 23.2196 4.30228 23.4429 4.58661 23.4429Z" fill="#4FCCB5"/>
<path d="M20.9941 34.3551C22.5394 34.3551 23.7921 33.141 23.7921 31.6433C23.7921 30.1457 22.5394 28.9315 20.9941 28.9315C19.4488 28.9315 18.1961 30.1457 18.1961 31.6433C18.1961 33.141 19.4488 34.3551 20.9941 34.3551Z" fill="#4FCCB5"/>
<path opacity="0.37" d="M31.3355 17.1735C29.9925 16.7613 29.0748 15.9803 28.5375 14.9607C28.2689 15.3728 28.1122 15.8718 28.1122 16.3925C28.1122 17.8894 29.3658 19.1042 30.9103 19.1042C32.0742 19.1042 33.0591 18.4317 33.4844 17.4555C32.7457 17.4555 32.0295 17.3687 31.3355 17.1735Z" fill="#4FCCB5"/>
<path opacity="0.37" d="M15.0398 6.7384C13.0253 6.32621 11.727 4.98118 11.2122 3.31073C10.8764 3.80969 10.6973 4.41714 10.7197 5.04626C10.7645 6.71671 12.2194 8.04005 13.943 7.99666C14.9055 7.97496 15.7337 7.51939 16.2933 6.86857C15.868 6.86857 15.4427 6.82518 15.0398 6.7384Z" fill="#4FCCB5"/>
<path opacity="0.37" d="M0.311218 18.7788C0.646979 19.8201 1.67665 20.6011 2.863 20.6011C4.34035 20.6011 5.54909 19.4296 5.54909 17.9978C5.54909 17.7374 5.50432 17.4988 5.43717 17.2819C4.11651 18.8005 2.19148 19.2777 0.311218 18.7788Z" fill="#4FCCB5"/>
<path opacity="0.37" d="M22.2924 30.6237C22.7848 30.6453 23.2549 30.7321 23.6802 30.8405C23.3221 29.7341 22.27 28.9098 20.9941 28.9098C19.4496 28.9098 18.1961 30.1246 18.1961 31.6215C18.1961 31.7734 18.2185 31.9253 18.2409 32.0772C19.2258 31.0792 20.815 30.5586 22.2924 30.6237Z" fill="#4FCCB5"/>
<path d="M26.0079 28.389C26.4406 28.389 26.7913 28.0491 26.7913 27.6298C26.7913 27.2104 26.4406 26.8705 26.0079 26.8705C25.5752 26.8705 25.2244 27.2104 25.2244 27.6298C25.2244 28.0491 25.5752 28.389 26.0079 28.389Z" fill="#4FCCB5"/>
<path d="M30.4599 25.0638C31.0042 24.4118 30.9001 23.4556 30.2274 22.928C29.5547 22.4005 28.568 22.5014 28.0237 23.1534C27.4794 23.8054 27.5835 24.7616 28.2562 25.2891C28.929 25.8167 29.9156 25.7157 30.4599 25.0638Z" fill="#4FCCB5"/>
<path d="M14.5699 30.4284C14.4579 31.0142 13.8759 31.4046 13.2716 31.2962C12.6672 31.1877 12.2643 30.6237 12.3762 30.0379C12.4881 29.4522 13.0701 29.0617 13.6745 29.1701C14.2789 29.2786 14.6818 29.8427 14.5699 30.4284Z" fill="#4FCCB5"/>
<path d="M7.91402 28.0751C8.72134 27.4233 8.83055 26.2605 8.15794 25.478C7.48533 24.6956 6.2856 24.5898 5.47827 25.2417C4.67095 25.8935 4.56174 27.0563 5.23435 27.8388C5.90696 28.6213 7.10669 28.7271 7.91402 28.0751Z" fill="#4FCCB5"/>
<path d="M27.2392 12.3139C27.981 12.3139 28.5823 11.7311 28.5823 11.0122C28.5823 10.2934 27.981 9.71057 27.2392 9.71057C26.4975 9.71057 25.8962 10.2934 25.8962 11.0122C25.8962 11.7311 26.4975 12.3139 27.2392 12.3139Z" fill="#4FCCB5"/>
<path d="M17.0767 28.476C22.6398 28.476 27.1496 24.1053 27.1496 18.7137C27.1496 13.322 22.6398 8.95129 17.0767 8.95129C11.5137 8.95129 7.00391 13.322 7.00391 18.7137C7.00391 24.1053 11.5137 28.476 17.0767 28.476Z" fill="#4FCCB5"/>
<path opacity="0.37" d="M17.1215 20.536C13.831 18.1929 11.8165 14.8738 10.5854 11.2509C8.39172 13.0515 7.00391 15.7199 7.00391 18.7137C7.00391 24.1155 11.5031 28.476 17.0767 28.476C21.0163 28.476 24.4187 26.2849 26.0751 23.0958C22.8966 23.3128 19.7181 22.38 17.1215 20.536Z" fill="#4FCCB5"/>
<path d="M16.4501 11.1424C18.7332 11.2725 21.1731 11.7281 22.8967 13.3117C23.2772 13.6589 23.8368 13.0949 23.4563 12.7694C21.576 11.0555 18.9347 10.5349 16.4277 10.3831C15.9352 10.3179 15.9352 11.099 16.4501 11.1424Z" fill="#4FCCB5"/>
<path d="M23.9935 14.6568C24.1726 14.9388 24.3292 15.2209 24.4636 15.5028C24.4412 15.4812 24.4412 15.4378 24.4188 15.4161C24.4412 15.4812 24.4636 15.5462 24.5083 15.6114C24.5531 15.6981 24.5979 15.7849 24.6874 15.85C24.7769 15.8933 24.9112 15.915 25.0008 15.8933C25.0903 15.8716 25.2022 15.8066 25.247 15.7198C25.2918 15.6331 25.3365 15.5245 25.2918 15.4161C25.1351 15.0256 24.956 14.6351 24.7098 14.2663C24.665 14.1796 24.5755 14.1145 24.4636 14.0928C24.374 14.071 24.2397 14.071 24.1502 14.1362C23.9487 14.2446 23.8592 14.4833 23.9935 14.6568Z" fill="#4FCCB5"/>
<path d="M17.1663 18.2581C17.211 18.2364 17.2558 18.2147 17.2782 18.1929C17.3006 18.1929 17.4349 18.1278 17.3453 18.1712C17.4125 18.1495 17.502 18.1061 17.5692 18.0845C17.6363 18.0628 17.7259 18.0411 17.793 18.0194C17.8378 18.0194 17.8825 17.9977 17.9273 17.9977C17.8378 18.0194 17.9497 17.9977 17.9721 17.9977C18.1288 17.976 18.3078 17.976 18.4645 17.9977C18.4869 17.9977 18.5093 17.9977 18.5317 17.9977C18.4869 17.9977 18.4869 17.9977 18.5317 17.9977C18.5541 17.9977 18.5988 18.0194 18.6212 18.0194C18.7108 18.0411 18.8003 18.0628 18.8898 18.0845C19.0913 18.1495 19.3375 18.0194 19.3823 17.8024C19.427 17.5855 19.3151 17.3902 19.0913 17.3252C18.3078 17.0866 17.4573 17.195 16.741 17.5638C16.5619 17.6723 16.4724 17.9326 16.6067 18.1062C16.741 18.3014 16.9648 18.3665 17.1663 18.2581Z" fill="#4FCCB5"/>
<path d="M30.8877 15.4377C30.9996 15.4377 31.1116 15.4377 31.2235 15.4377C31.1787 15.4377 31.1563 15.4377 31.1116 15.416C31.2459 15.4377 31.3578 15.4594 31.4921 15.5244C31.4697 15.5027 31.4249 15.5027 31.4026 15.481C31.5145 15.5244 31.6264 15.5895 31.7383 15.6763C31.7159 15.6547 31.6936 15.633 31.6488 15.6112C31.7383 15.6763 31.8055 15.7414 31.8726 15.8282C31.9398 15.8932 32.0517 15.9366 32.1636 15.9366C32.2532 15.9366 32.3875 15.8932 32.4546 15.8282C32.6113 15.6547 32.6113 15.4377 32.4546 15.2858C32.0741 14.8737 31.4697 14.635 30.9101 14.6784C30.7982 14.6784 30.7087 14.7218 30.6191 14.7868C30.552 14.8519 30.5072 14.9604 30.5072 15.0689C30.4848 15.2425 30.6639 15.4594 30.8877 15.4377Z" fill="#4FCCB5"/>
<path d="M13.6967 3.67956C13.8086 3.65786 13.8981 3.65786 14.0101 3.65786C14.0772 3.65786 14.122 3.65786 14.1891 3.67956C14.1444 3.67956 14.1444 3.67956 14.1891 3.67956C14.2115 3.67956 14.2563 3.67956 14.2787 3.70125C14.3234 3.72295 14.3906 3.72295 14.4354 3.74464C14.4578 3.74464 14.5025 3.76633 14.5249 3.76633C14.5249 3.76633 14.5921 3.78803 14.5697 3.78803C14.5249 3.76634 14.6144 3.80972 14.6144 3.80972C14.6368 3.80972 14.6592 3.83142 14.6816 3.83142C14.7264 3.85311 14.7935 3.89651 14.8383 3.9182C14.8607 3.93989 14.883 3.93989 14.883 3.96158C14.883 3.96158 14.9726 4.02666 14.9278 3.98328C14.883 3.96158 14.9502 4.00497 14.9502 4.00497C14.9726 4.02667 14.995 4.04836 15.0174 4.04836C15.0845 4.11344 15.1517 4.17852 15.2188 4.2653C15.2412 4.287 15.2412 4.30869 15.2636 4.33038C15.286 4.37377 15.3083 4.41716 15.3307 4.46055C15.3531 4.50394 15.3755 4.54733 15.3979 4.59071C15.3755 4.54733 15.3755 4.56902 15.3979 4.59071C15.4203 4.61241 15.4203 4.6558 15.4203 4.67749C15.4874 4.87274 15.7113 5.0246 15.9127 4.95951C16.1142 4.89443 16.2709 4.67749 16.2037 4.48224C16.0246 3.98328 15.7113 3.57109 15.2636 3.26738C14.8159 2.98535 14.2339 2.83349 13.7191 2.92027C13.6072 2.94196 13.5176 2.96366 13.4281 3.02873C13.3609 3.09382 13.3162 3.20229 13.3162 3.31076C13.2938 3.46262 13.4729 3.70125 13.6967 3.67956Z" fill="#4FCCB5"/>
<path d="M1.90041 17.477C1.90041 17.4553 1.90041 17.4336 1.90041 17.4119C1.90041 17.4553 1.90041 17.477 1.87803 17.5203C1.90041 17.4119 1.9228 17.325 1.96757 17.2166C1.94518 17.2383 1.94518 17.2817 1.9228 17.3033C1.96756 17.1949 2.03472 17.1082 2.10187 17.0214C2.07949 17.0431 2.0571 17.0648 2.03472 17.1081C2.10187 17.0214 2.16902 16.9562 2.25856 16.8912C2.23617 16.9129 2.21379 16.9345 2.16902 16.9562C2.25856 16.8912 2.34809 16.8478 2.43763 16.8044C2.41525 16.8261 2.37048 16.8261 2.3481 16.8478C2.3481 16.8478 2.34809 16.8478 2.37048 16.8478C2.4824 16.8044 2.54955 16.761 2.6167 16.6743C2.66147 16.5874 2.68386 16.4573 2.66147 16.3705C2.63909 16.2838 2.57193 16.1752 2.4824 16.1319C2.39286 16.0885 2.28094 16.0451 2.16902 16.0885C2.07949 16.1319 1.98995 16.1536 1.9228 16.1969C1.83326 16.2403 1.76611 16.3055 1.69896 16.3489C1.58704 16.4356 1.4975 16.5441 1.38558 16.6743C1.20651 16.9129 1.11697 17.1949 1.0722 17.4986C1.0722 17.5854 1.11697 17.7155 1.18412 17.7807C1.25128 17.8458 1.36319 17.8891 1.47512 17.8891C1.58704 17.8891 1.67657 17.8458 1.76611 17.7807C1.85564 17.6721 1.87803 17.5854 1.90041 17.477Z" fill="#4FCCB5"/>
<path d="M7.76505 10.5998C7.78743 10.5998 7.78743 10.5781 7.80982 10.5781C7.78743 10.5998 7.74267 10.5998 7.72028 10.6215C7.74267 10.5998 7.78743 10.5998 7.80982 10.5998C7.76505 10.5998 7.74266 10.5998 7.6979 10.6215C7.74266 10.6215 7.76505 10.6215 7.78743 10.6215C7.74267 10.6215 7.72028 10.6215 7.67551 10.5998C7.72028 10.5998 7.74267 10.6215 7.78743 10.6215C7.76505 10.5998 7.74266 10.5781 7.6979 10.5564C7.72028 10.5781 7.74267 10.5998 7.76505 10.6215C7.74267 10.5998 7.72028 10.5781 7.6979 10.5347C7.72028 10.5564 7.72028 10.5781 7.74266 10.5998C7.76505 10.6432 7.80982 10.6867 7.85458 10.7083C7.89935 10.7517 7.94412 10.7734 7.98889 10.7734C8.03366 10.7951 8.10081 10.7951 8.14558 10.7734C8.19035 10.7734 8.2575 10.7517 8.30227 10.73C8.3918 10.6867 8.45895 10.5998 8.48134 10.4914C8.48134 10.448 8.48134 10.4263 8.50372 10.3829C8.50372 10.3178 8.48134 10.2527 8.45896 10.1876C8.43657 10.1659 8.43657 10.1443 8.41419 10.1226C8.36942 10.0792 8.34703 10.0358 8.30227 9.9924C8.2575 9.94901 8.21273 9.92731 8.16796 9.88392C8.12319 9.86224 8.05604 9.84054 8.01128 9.81885C7.94412 9.79715 7.89935 9.79715 7.8322 9.79715C7.80982 9.79715 7.76505 9.79715 7.74266 9.79715C7.67551 9.79715 7.63075 9.79715 7.56359 9.81885C7.51883 9.84054 7.47406 9.84054 7.42929 9.86223C7.4069 9.86223 7.4069 9.88392 7.38452 9.88392C7.29498 9.92731 7.22783 10.0141 7.20545 10.1226C7.18306 10.1659 7.18306 10.231 7.20545 10.2744C7.20545 10.3178 7.22783 10.3829 7.25022 10.4263C7.29498 10.513 7.38452 10.5781 7.49644 10.5998C7.54121 10.665 7.65313 10.665 7.76505 10.5998Z" fill="#4FCCB5"/>
<path d="M5.72808 25.8942C5.63854 26.0027 5.54901 26.1329 5.50424 26.2847C5.45947 26.3932 5.45947 26.5234 5.45947 26.6535C5.48186 26.9139 5.59378 27.1958 5.81762 27.3694C5.90716 27.4345 5.99669 27.4779 6.10861 27.4779C6.19815 27.4779 6.33245 27.4345 6.3996 27.3694C6.46675 27.3044 6.51152 27.1958 6.51152 27.0874C6.51152 26.9789 6.46675 26.8705 6.3996 26.8053C6.35483 26.7836 6.33245 26.7403 6.31007 26.7186C6.33245 26.7403 6.35484 26.762 6.37722 26.8053C6.35484 26.762 6.31007 26.7186 6.28768 26.6752C6.31007 26.6969 6.31007 26.7403 6.33245 26.7619C6.31007 26.6969 6.28768 26.6318 6.28768 26.5668C6.28768 26.6101 6.28768 26.6318 6.31007 26.6752C6.31007 26.6101 6.31007 26.5451 6.31007 26.5017C6.31007 26.5451 6.31007 26.5668 6.28768 26.6101C6.28768 26.5451 6.31007 26.5017 6.33245 26.4365C6.31007 26.4582 6.31007 26.5017 6.28768 26.5234C6.31007 26.48 6.33245 26.4365 6.35484 26.3932C6.33245 26.4148 6.31007 26.4365 6.28768 26.48C6.28768 26.48 6.28768 26.4582 6.31007 26.4582C6.37722 26.3715 6.42199 26.2847 6.42199 26.1763C6.42199 26.0894 6.37722 25.9593 6.31007 25.8942C6.24292 25.8291 6.13099 25.7858 6.01907 25.7858C5.90715 25.7858 5.79523 25.8075 5.72808 25.8942Z" fill="#4FCCB5"/>
<path d="M19.6511 32.8799C20.3003 33.4222 21.1508 33.6391 22.0014 33.4872C22.2029 33.4438 22.3372 33.1836 22.2924 33.01C22.2253 32.7931 22.0238 32.7062 21.8 32.7279C21.7776 32.7279 21.7552 32.7279 21.7328 32.7279C21.7776 32.7279 21.8 32.7279 21.7552 32.7279C21.7104 32.7279 21.6657 32.7279 21.6209 32.7279C21.5314 32.7279 21.4642 32.7279 21.3747 32.7279C21.3299 32.7279 21.2851 32.7279 21.2404 32.7279C21.1956 32.7279 21.1956 32.7279 21.2628 32.7279C21.2404 32.7279 21.218 32.7279 21.1956 32.7279C21.1285 32.7062 21.0389 32.7062 20.9718 32.6846C20.9046 32.6629 20.8151 32.6412 20.7479 32.6195C20.7255 32.6195 20.7032 32.5978 20.6808 32.5978C20.7255 32.6195 20.7255 32.6195 20.6808 32.5978C20.636 32.5761 20.6136 32.5544 20.5689 32.5544C20.5017 32.5111 20.4346 32.4677 20.345 32.4243C20.3003 32.4025 20.2779 32.3808 20.2331 32.3591C20.1883 32.3374 20.2107 32.3374 20.2331 32.3591C20.2107 32.3374 20.2107 32.3374 20.1883 32.3158C20.0316 32.1856 19.7854 32.1422 19.6287 32.3158C19.5168 32.4677 19.472 32.7279 19.6511 32.8799Z" fill="#4FCCB5"/>
<path d="M28.4479 24.5709C28.4927 24.6143 28.515 24.6577 28.5598 24.7011C28.6046 24.7445 28.6493 24.7878 28.6941 24.8095C28.7165 24.8312 28.7389 24.8312 28.7613 24.8529C28.806 24.8747 28.8732 24.8964 28.9403 24.9181C29.0075 24.9397 29.0523 24.9398 29.1194 24.9398C29.1418 24.9398 29.1866 24.9398 29.2089 24.9398C29.2761 24.9398 29.3209 24.9181 29.388 24.9181C29.4552 24.8964 29.4999 24.8747 29.5671 24.8529C29.6119 24.8312 29.6566 24.7878 29.679 24.7445C29.7238 24.7011 29.7462 24.6577 29.7462 24.6143C29.7686 24.5709 29.7686 24.5059 29.7462 24.4624C29.7462 24.419 29.7238 24.354 29.7014 24.3106C29.6566 24.2238 29.5671 24.1588 29.4552 24.1371C29.4104 24.1371 29.388 24.1371 29.3432 24.1153C29.2761 24.1153 29.2089 24.1371 29.1418 24.1588C29.1418 24.1588 29.1418 24.1588 29.1194 24.1588C29.1418 24.1371 29.1866 24.1371 29.2089 24.1153C29.1642 24.1153 29.1194 24.1153 29.0746 24.1153C29.1194 24.1153 29.1418 24.1153 29.1866 24.1371C29.1418 24.1371 29.097 24.1153 29.0746 24.1153C29.097 24.1371 29.1418 24.1371 29.1642 24.1588C29.1194 24.1371 29.097 24.1153 29.0523 24.0936C29.0746 24.1153 29.097 24.1371 29.1418 24.1588C29.1194 24.1371 29.097 24.1153 29.0746 24.0936C29.097 24.1153 29.1194 24.1371 29.1418 24.1805C29.1418 24.1805 29.1418 24.1588 29.1194 24.1588C29.097 24.1153 29.0523 24.0719 29.0075 24.0502C28.9627 24.0068 28.918 23.9852 28.8732 23.9852C28.8284 23.9635 28.7613 23.9635 28.7165 23.9852C28.6717 23.9852 28.6046 24.0068 28.5598 24.0285C28.4703 24.0719 28.4031 24.1588 28.3807 24.2672C28.3807 24.354 28.3807 24.4841 28.4479 24.5709Z" fill="#4FCCB5"/>
<path d="M13.0029 29.9295C12.9805 29.9946 12.9805 30.0596 12.9805 30.1247C12.9805 30.1681 12.9805 30.2115 12.9805 30.2332C12.9805 30.2983 13.0029 30.3634 13.0029 30.4284C13.0254 30.4935 13.0478 30.5586 13.0702 30.602C13.0926 30.6454 13.115 30.6671 13.1598 30.6888C13.1823 30.7105 13.2271 30.7322 13.2719 30.7538C13.3167 30.7755 13.3616 30.7755 13.4064 30.7538C13.4512 30.7538 13.4961 30.7322 13.5409 30.7105C13.6081 30.6671 13.6754 30.602 13.6978 30.5152C13.6978 30.4935 13.6978 30.4501 13.7202 30.4284C13.7202 30.3634 13.6978 30.32 13.6754 30.2549C13.6978 30.2766 13.6978 30.2983 13.7202 30.3417C13.6978 30.2983 13.6754 30.2332 13.6754 30.1681C13.6754 30.1897 13.6754 30.2332 13.6978 30.2549C13.6978 30.1897 13.6978 30.1464 13.6978 30.0813C13.6978 30.103 13.6978 30.1464 13.6754 30.1681C13.6754 30.1464 13.6754 30.1247 13.6978 30.0813C13.7202 29.9946 13.6978 29.9078 13.653 29.821C13.6305 29.7776 13.6081 29.7559 13.5633 29.7342C13.5409 29.7125 13.4961 29.6908 13.4512 29.6691C13.3616 29.6474 13.2719 29.6474 13.1823 29.7125C13.0926 29.7776 13.0254 29.8427 13.0029 29.9295Z" fill="#4FCCB5"/>
<path d="M27.2614 10.8603H27.2838C27.2614 10.8603 27.2166 10.8603 27.1942 10.882C27.2166 10.882 27.2166 10.882 27.239 10.882C27.2166 10.882 27.1718 10.882 27.1495 10.8603C27.1718 10.8603 27.1718 10.8603 27.1942 10.882C27.1718 10.8603 27.1495 10.8603 27.1047 10.8387C27.1271 10.8387 27.1271 10.8603 27.1495 10.8603C27.1271 10.8387 27.1047 10.817 27.0823 10.817C27.1047 10.817 27.1047 10.8387 27.1271 10.8603C27.1047 10.8387 27.0823 10.817 27.0823 10.7953C27.1047 10.817 27.1047 10.8387 27.1047 10.8603C27.0823 10.8387 27.0823 10.817 27.0599 10.7736C27.1047 10.8603 27.1047 10.9688 27.1271 11.0555C27.1495 11.1641 27.1495 11.2508 27.1718 11.3593C27.1942 11.4243 27.2614 11.5112 27.3285 11.5546C27.3957 11.5979 27.5076 11.6196 27.5971 11.5979C27.6867 11.5763 27.7538 11.5329 27.7986 11.446C27.821 11.4243 27.821 11.4026 27.8434 11.3593C27.8658 11.2942 27.8658 11.2508 27.8434 11.1858C27.821 11.0122 27.7986 10.8387 27.7538 10.6867C27.7314 10.6217 27.7091 10.5783 27.6867 10.5132C27.6643 10.4915 27.6643 10.4698 27.6419 10.4482C27.6195 10.4265 27.6195 10.4048 27.5971 10.3831C27.53 10.3397 27.4628 10.2746 27.3733 10.2746C27.3285 10.2746 27.2838 10.2529 27.2614 10.2529C27.2166 10.2529 27.1718 10.2529 27.1271 10.2746C27.0375 10.2962 26.9704 10.3397 26.9256 10.4265C26.8809 10.4915 26.8585 10.6 26.8809 10.6867C26.9032 10.7736 26.948 10.8386 27.0375 10.882C27.0599 10.8603 27.1718 10.882 27.2614 10.8603Z" fill="#4FCCB5"/>
</g>
<defs>
<clipPath id="clip0_1_47">
<rect width="37" height="33.9147" fill="white" transform="translate(0 0.596924)"/>
</clipPath>
</defs>
</svg>
