<svg width="37" height="24" viewBox="0 0 37 24" fill="none" xmlns="http://www.w3.org/2000/svg">
<g clip-path="url(#clip0_1_9)">
<path d="M-6.10352e-05 8.07703C-6.10352e-05 7.90348 0.156838 7.75162 0.336151 7.75162C0.515464 7.75162 0.672363 7.90348 0.672363 8.07703C0.672363 8.25058 0.515464 8.40244 0.336151 8.40244C0.156838 8.42414 -6.10352e-05 8.27228 -6.10352e-05 8.07703Z" fill="#4FCCB5"/>
<path d="M12.4689 21.4405C12.5808 21.4405 12.6703 21.4839 12.7375 21.5707C12.8494 21.7225 12.827 21.9177 12.6703 22.0263L9.76041 24.1957C9.60372 24.3042 9.40227 24.2825 9.29035 24.1306C9.17843 23.9787 9.20081 23.7834 9.3575 23.675L12.2674 21.5056C12.3122 21.4622 12.4017 21.4405 12.4689 21.4405Z" fill="#4FCCB5"/>
<path d="M11.3048 17.1671C11.5734 17.1671 11.8197 17.3623 11.8644 17.6226C11.9092 17.9264 11.7077 18.1867 11.3944 18.2518L6.98469 18.946C6.67132 18.9894 6.40271 18.7941 6.33556 18.4904C6.29079 18.1867 6.49224 17.9264 6.80562 17.8613L11.2153 17.1671C11.2377 17.1671 11.2824 17.1671 11.3048 17.1671Z" fill="#4FCCB5"/>
<path d="M21.5343 23.9137C21.8029 23.9137 22.0492 24.1089 22.0939 24.3693L22.8998 29.1203C22.9445 29.424 22.7431 29.6843 22.4297 29.7494C22.1163 29.7928 21.8477 29.5976 21.7806 29.2938L20.9747 24.5428C20.93 24.2391 21.1314 23.9788 21.4448 23.9137C21.4896 23.9354 21.512 23.9137 21.5343 23.9137Z" fill="#4FCCB5"/>
<path d="M26.0561 21.9395C26.1456 21.9395 26.2128 21.9612 26.2799 22.0262L28.8093 24.2173C28.9436 24.3475 28.966 24.5427 28.8317 24.6729C28.6974 24.803 28.4959 24.8247 28.3616 24.6946L25.8322 22.5035C25.6979 22.3733 25.6755 22.178 25.8099 22.0479C25.8546 21.9828 25.9665 21.9395 26.0561 21.9395Z" fill="#4FCCB5"/>
<path d="M33.7564 16.5162C34.0698 16.5162 34.316 16.7549 34.316 17.0368C34.316 17.3405 34.0698 17.5792 33.7788 17.6009L28.0261 17.731C27.7127 17.731 27.4665 17.4925 27.4441 17.2104C27.4441 16.9067 27.6904 16.668 27.9813 16.6463L33.7564 16.5162Z" fill="#4FCCB5"/>
<path d="M29.5255 8.09897C29.615 8.09897 29.7046 8.12066 29.7717 8.18574C29.906 8.31591 29.906 8.51116 29.7717 8.64132L27.1975 11.1796C27.0632 11.3097 26.8618 11.3097 26.7275 11.1796C26.5932 11.0493 26.5932 10.8542 26.7275 10.7239L29.2793 8.20744C29.3464 8.14236 29.4359 8.09897 29.5255 8.09897Z" fill="#4FCCB5"/>
<path d="M23.0342 4.21552C23.0566 4.21552 23.1014 4.21552 23.1237 4.23721C23.3028 4.2806 23.4147 4.47584 23.3476 4.6494L22.1388 8.64112C22.0941 8.81467 21.8926 8.92314 21.7135 8.85806C21.5345 8.81467 21.4226 8.61943 21.4897 8.44587L22.6984 4.45415C22.7432 4.3023 22.8775 4.21552 23.0342 4.21552Z" fill="#4FCCB5"/>
<path d="M15.513 4.08511C15.7592 4.08511 15.9831 4.23697 16.0502 4.47561L17.3037 8.44564C17.3933 8.72766 17.2366 9.03138 16.9232 9.11816C16.6322 9.20493 16.3188 9.05307 16.2293 8.74936L14.9758 4.77933C14.8862 4.4973 15.0429 4.19358 15.3563 4.10681C15.4011 4.10681 15.4458 4.08511 15.513 4.08511Z" fill="#4FCCB5"/>
<path d="M7.90268 11.0275C7.94745 11.0275 7.99222 11.0275 8.05937 11.0709L11.4841 12.698C11.6408 12.7847 11.7079 12.9799 11.6408 13.1319C11.5513 13.2837 11.3498 13.3487 11.1931 13.2837L7.76838 11.6566C7.61169 11.5699 7.54453 11.3746 7.61169 11.2228C7.65645 11.0925 7.76838 11.0275 7.90268 11.0275Z" fill="#4FCCB5"/>
<path d="M4.53102 16.1744C3.08725 16.7082 2.3633 18.2752 2.91405 19.6744C3.46479 21.0738 5.08166 21.7754 6.52543 21.2416C7.9692 20.7079 8.69314 19.1408 8.1424 17.7415C7.59166 16.3423 5.97479 15.6406 4.53102 16.1744Z" fill="#4FCCB5"/>
<path d="M28.5855 23.1548C27.8438 23.1548 27.2425 23.7376 27.2425 24.4565C27.2425 25.1753 27.8438 25.7581 28.5855 25.7581C29.3273 25.7581 29.9286 25.1753 29.9286 24.4565C29.9286 23.7376 29.3273 23.1548 28.5855 23.1548Z" fill="#4FCCB5"/>
<path d="M33.5771 14.5204C32.0936 14.5204 30.891 15.686 30.891 17.1237C30.891 18.5615 32.0936 19.727 33.5771 19.727C35.0606 19.727 36.2632 18.5615 36.2632 17.1237C36.2632 15.686 35.0606 14.5204 33.5771 14.5204Z" fill="#4FCCB5"/>
<path d="M31.8534 11.6568C31.5691 11.6568 31.3386 11.8802 31.3386 12.1557C31.3386 12.4313 31.5691 12.6548 31.8534 12.6548C32.1377 12.6548 32.3682 12.4313 32.3682 12.1557C32.3682 11.8802 32.1377 11.6568 31.8534 11.6568Z" fill="#4FCCB5"/>
<path d="M15.4459 0.744202C13.9006 0.744202 12.6478 1.9583 12.6478 3.45597C12.6478 4.95364 13.9006 6.16774 15.4459 6.16774C16.9912 6.16774 18.2439 4.95364 18.2439 3.45597C18.2439 1.9583 16.9912 0.744202 15.4459 0.744202Z" fill="#4FCCB5"/>
<path opacity="0.37" d="M5.10444 17.9263C6.44749 18.3385 7.36523 19.1195 7.90245 20.1391C8.17106 19.7269 8.32775 19.2279 8.32775 18.7073C8.32775 17.2104 7.07424 15.9955 5.52974 15.9955C4.36577 15.9955 3.38087 16.668 2.95557 17.6443C3.69425 17.6443 4.41054 17.731 5.10444 17.9263Z" fill="#4FCCB5"/>
<path opacity="0.37" d="M36.1288 16.3208C35.793 15.2795 34.7634 14.4985 33.577 14.4985C32.0997 14.4985 30.8909 15.67 30.8909 17.1018C30.8909 17.3621 30.9357 17.6008 31.0028 17.8177C32.3235 16.2992 34.2485 15.8218 36.1288 16.3208Z" fill="#4FCCB5"/>
<path opacity="0.37" d="M14.1476 4.47611C13.6551 4.45442 13.1851 4.36764 12.7598 4.25917C13.1179 5.36557 14.17 6.18996 15.4459 6.18996C16.9904 6.18996 18.2439 4.97508 18.2439 3.47819C18.2439 3.32632 18.2215 3.17446 18.1991 3.02261C17.2142 4.02054 15.6249 4.5412 14.1476 4.47611Z" fill="#4FCCB5"/>
<path d="M10.432 6.71039C9.99932 6.71039 9.64856 7.05034 9.64856 7.46968C9.64856 7.88903 9.99932 8.22897 10.432 8.22897C10.8647 8.22897 11.2154 7.88903 11.2154 7.46968C11.2154 7.05034 10.8647 6.71039 10.432 6.71039Z" fill="#4FCCB5"/>
<path d="M5.97994 10.0359C5.43562 10.6879 5.53973 11.6441 6.21247 12.1716C6.8852 12.6991 7.87182 12.5983 8.41614 11.9462C8.96046 11.2943 8.85635 10.3381 8.18361 9.81052C7.51088 9.28298 6.52426 9.38389 5.97994 10.0359Z" fill="#4FCCB5"/>
<path d="M21.8702 4.67111C21.9822 4.08537 22.5641 3.69487 23.1685 3.80334C23.7729 3.91181 24.1758 4.47586 24.0639 5.0616C23.952 5.64735 23.37 6.03784 22.7656 5.92937C22.1612 5.82089 21.7583 5.25685 21.8702 4.67111Z" fill="#4FCCB5"/>
<path d="M28.526 7.02433C27.7186 7.67622 27.6094 8.83899 28.282 9.62145C28.9546 10.4039 30.1544 10.5097 30.9617 9.85784C31.769 9.20595 31.8782 8.04318 31.2056 7.26073C30.533 6.47828 29.3333 6.37244 28.526 7.02433Z" fill="#4FCCB5"/>
<path d="M9.20077 22.786C8.45903 22.786 7.85773 23.3688 7.85773 24.0876C7.85773 24.8065 8.45903 25.3893 9.20077 25.3893C9.94251 25.3893 10.5438 24.8065 10.5438 24.0876C10.5438 23.3688 9.94251 22.786 9.20077 22.786Z" fill="#4FCCB5"/>
<path d="M19.3632 6.62375C13.8002 6.62375 9.29041 10.9945 9.29041 16.3861C9.29041 21.7777 13.8002 26.1485 19.3632 26.1485C24.9263 26.1485 29.4361 21.7777 29.4361 16.3861C29.4361 10.9945 24.9263 6.62375 19.3632 6.62375Z" fill="#4FCCB5"/>
<path opacity="0.37" d="M19.3185 14.5637C22.6089 16.9066 24.6235 20.2258 25.8546 23.8487C28.0483 22.0482 29.4361 19.3797 29.4361 16.386C29.4361 10.9841 24.9369 6.6236 19.3632 6.6236C15.4236 6.6236 12.0213 8.8147 10.3648 12.0038C13.5434 11.7868 16.7219 12.7197 19.3185 14.5637Z" fill="#4FCCB5"/>
<path d="M19.9899 23.9572C17.7067 23.827 15.2669 23.3714 13.5433 21.7877C13.1628 21.4406 12.6032 22.0047 12.9837 22.3301C14.864 24.0439 17.5053 24.5646 20.0123 24.7164C20.5047 24.7815 20.5047 24.0005 19.9899 23.9572Z" fill="#4FCCB5"/>
<path d="M12.4465 20.4429C12.2674 20.1608 12.1107 19.8788 11.9764 19.5967C11.9988 19.6184 11.9988 19.6618 12.0212 19.6836C11.9988 19.6184 11.9764 19.5534 11.9317 19.4883C11.8869 19.4015 11.8421 19.3148 11.7526 19.2496C11.663 19.2062 11.5287 19.1846 11.4392 19.2062C11.3497 19.2279 11.2377 19.293 11.193 19.3799C11.1482 19.4666 11.1034 19.575 11.1482 19.6836C11.3049 20.0741 11.484 20.4646 11.7302 20.8334C11.775 20.9201 11.8645 20.9852 11.9764 21.0069C12.066 21.0286 12.2003 21.0286 12.2898 20.9635C12.4913 20.8551 12.5808 20.6164 12.4465 20.4429Z" fill="#4FCCB5"/>
<path d="M19.2737 16.8415C19.229 16.8632 19.1842 16.8849 19.1618 16.9066C19.1394 16.9066 19.0051 16.9716 19.0947 16.9282C19.0275 16.9499 18.938 16.9933 18.8708 17.015C18.8037 17.0368 18.7141 17.0585 18.647 17.0802C18.6022 17.0802 18.5575 17.1018 18.5127 17.1018C18.6022 17.0802 18.4903 17.1018 18.4679 17.1018C18.3112 17.1235 18.1322 17.1235 17.9755 17.1018C17.9531 17.1018 17.9307 17.1018 17.9083 17.1018C17.9531 17.1018 17.9531 17.1018 17.9083 17.1018C17.8859 17.1018 17.8412 17.0802 17.8188 17.0802C17.7292 17.0585 17.6397 17.0368 17.5502 17.015C17.3487 16.9499 17.1025 17.0802 17.0577 17.297C17.013 17.514 17.1249 17.7092 17.3487 17.7743C18.1322 18.013 18.9827 17.9045 19.699 17.5357C19.8781 17.4273 19.9676 17.1669 19.8333 16.9933C19.699 16.7981 19.4752 16.733 19.2737 16.8415Z" fill="#4FCCB5"/>
<path d="M5.55213 19.6619C5.44021 19.6619 5.32829 19.6619 5.21637 19.6619C5.26114 19.6619 5.28352 19.6619 5.32829 19.6836C5.19399 19.6619 5.08206 19.6402 4.94776 19.5752C4.97014 19.5968 5.01491 19.5968 5.03729 19.6185C4.92537 19.5752 4.81345 19.5101 4.70153 19.4233C4.72392 19.445 4.7463 19.4667 4.79107 19.4884C4.70153 19.4233 4.63438 19.3582 4.56723 19.2714C4.50008 19.2064 4.38816 19.163 4.27624 19.163C4.1867 19.163 4.0524 19.2064 3.98525 19.2714C3.82856 19.445 3.82856 19.6619 3.98525 19.8138C4.36578 20.226 4.97014 20.4646 5.52975 20.4212C5.64167 20.4212 5.7312 20.3778 5.82074 20.3128C5.88789 20.2477 5.93266 20.1393 5.93266 20.0307C5.95504 19.8572 5.77597 19.6402 5.55213 19.6619Z" fill="#4FCCB5"/>
<path d="M34.5396 17.6222C34.5396 17.6439 34.5396 17.6656 34.5396 17.6873C34.5396 17.6439 34.5396 17.6222 34.5619 17.5789C34.5396 17.6873 34.5172 17.7741 34.4724 17.8826C34.4948 17.8609 34.4948 17.8174 34.5172 17.7957C34.4724 17.9043 34.4053 17.991 34.3381 18.0778C34.3605 18.0561 34.3829 18.0344 34.4053 17.991C34.3381 18.0778 34.271 18.1429 34.1814 18.208C34.2038 18.1862 34.2262 18.1645 34.2709 18.1429C34.1814 18.208 34.0919 18.2514 34.0023 18.2948C34.0247 18.2731 34.0695 18.2731 34.0919 18.2514C34.0919 18.2514 34.0919 18.2514 34.0695 18.2514C33.9576 18.2948 33.8904 18.3382 33.8233 18.4249C33.7785 18.5117 33.7561 18.6419 33.7785 18.7286C33.8009 18.8154 33.868 18.9238 33.9576 18.9673C34.0471 19.0107 34.159 19.0541 34.2709 19.0107C34.3605 18.9673 34.45 18.9455 34.5172 18.9021C34.6067 18.8588 34.6739 18.7937 34.741 18.7503C34.8529 18.6636 34.9425 18.555 35.0544 18.4249C35.2335 18.1862 35.323 17.9043 35.3678 17.6005C35.3678 17.5138 35.323 17.3836 35.2558 17.3185C35.1887 17.2534 35.0768 17.2101 34.9649 17.2101C34.8529 17.2101 34.7634 17.2534 34.6739 17.3185C34.5843 17.4269 34.5619 17.5138 34.5396 17.6222Z" fill="#4FCCB5"/>
<path d="M30.7118 9.20517C30.8013 9.09669 30.8909 8.96653 30.9356 8.81467C30.9804 8.7062 30.9804 8.57604 30.9804 8.44587C30.958 8.18554 30.8461 7.90352 30.6223 7.72996C30.5327 7.66488 30.4432 7.62149 30.3313 7.62149C30.2417 7.62149 30.1074 7.66488 30.0403 7.72996C29.9731 7.79505 29.9284 7.90353 29.9284 8.01199C29.9284 8.12046 29.9731 8.22893 30.0403 8.29401C30.085 8.31571 30.1074 8.3591 30.1298 8.38079C30.1074 8.3591 30.085 8.3374 30.0627 8.29401C30.085 8.3374 30.1298 8.38079 30.1522 8.42417C30.1298 8.40249 30.1298 8.3591 30.1074 8.3374C30.1298 8.40249 30.1522 8.46757 30.1522 8.53265C30.1522 8.48926 30.1522 8.46757 30.1298 8.42417C30.1298 8.48926 30.1298 8.55434 30.1298 8.59773C30.1298 8.55434 30.1298 8.53264 30.1522 8.48926C30.1522 8.55434 30.1298 8.59773 30.1074 8.66282C30.1298 8.64112 30.1298 8.59773 30.1522 8.57604C30.1298 8.61943 30.1074 8.66281 30.085 8.7062C30.1074 8.6845 30.1298 8.66282 30.1522 8.61943C30.1522 8.61943 30.1522 8.64112 30.1298 8.64112C30.0627 8.7279 30.0179 8.81467 30.0179 8.92314C30.0179 9.00992 30.0627 9.14009 30.1298 9.20517C30.197 9.27025 30.3089 9.31364 30.4208 9.31364C30.5327 9.31364 30.6446 9.29195 30.7118 9.20517Z" fill="#4FCCB5"/>
<path d="M16.789 2.21981C16.1398 1.67746 15.2892 1.46052 14.4387 1.61238C14.2372 1.65577 14.1029 1.91609 14.1477 2.08964C14.2148 2.30658 14.4163 2.39336 14.6401 2.37167C14.6625 2.37167 14.6849 2.37167 14.7073 2.37167C14.6625 2.37167 14.6401 2.37167 14.6849 2.37167C14.7296 2.37167 14.7744 2.37167 14.8192 2.37167C14.9087 2.37167 14.9759 2.37167 15.0654 2.37167C15.1102 2.37167 15.1549 2.37167 15.1997 2.37167C15.2445 2.37167 15.2445 2.37167 15.1773 2.37167C15.1997 2.37167 15.2221 2.37167 15.2445 2.37167C15.3116 2.39336 15.4012 2.39336 15.4683 2.41506C15.5355 2.43675 15.625 2.45845 15.6922 2.48014C15.7145 2.48014 15.7369 2.50183 15.7593 2.50183C15.7145 2.48015 15.7145 2.48015 15.7593 2.50183C15.8041 2.52353 15.8265 2.54523 15.8712 2.54523C15.9384 2.58861 16.0055 2.632 16.0951 2.67539C16.1398 2.69709 16.1622 2.71877 16.207 2.74047C16.2294 2.76216 16.2518 2.76216 16.207 2.74047C16.2294 2.76216 16.2294 2.76216 16.2518 2.78386C16.4085 2.91402 16.6547 2.95742 16.8114 2.78386C16.9233 2.632 16.9681 2.37167 16.789 2.21981Z" fill="#4FCCB5"/>
<path d="M7.99226 10.5285C7.94749 10.4851 7.92511 10.4417 7.88034 10.3983C7.83557 10.355 7.7908 10.3116 7.74603 10.2899C7.72365 10.2682 7.70126 10.2682 7.67888 10.2465C7.63411 10.2248 7.56696 10.2031 7.49981 10.1814C7.43265 10.1597 7.38789 10.1597 7.32074 10.1597C7.29835 10.1597 7.25358 10.1597 7.2312 10.1597C7.16405 10.1597 7.11928 10.1814 7.05212 10.1814C6.98497 10.2031 6.94021 10.2248 6.87305 10.2465C6.82829 10.2682 6.78352 10.3116 6.76113 10.3549C6.71637 10.3983 6.69398 10.4417 6.69398 10.4851C6.67159 10.5285 6.67159 10.5936 6.69398 10.6369C6.69398 10.6804 6.71636 10.7455 6.73875 10.7888C6.78352 10.8756 6.87305 10.9407 6.98497 10.9624C7.02974 10.9624 7.05213 10.9623 7.0969 10.984C7.16405 10.984 7.2312 10.9624 7.29835 10.9407C7.29835 10.9407 7.29835 10.9407 7.32074 10.9407C7.29835 10.9624 7.25358 10.9623 7.2312 10.984C7.27597 10.984 7.32074 10.984 7.3655 10.984C7.32074 10.984 7.29835 10.984 7.25358 10.9624C7.29835 10.9624 7.34312 10.984 7.3655 10.984C7.34312 10.9623 7.29835 10.9624 7.27596 10.9407C7.32073 10.9624 7.34312 10.984 7.38789 11.0057C7.3655 10.984 7.34312 10.9624 7.29835 10.9407C7.32073 10.9624 7.34312 10.984 7.3655 11.0057C7.34312 10.984 7.32073 10.9624 7.29835 10.919C7.29835 10.919 7.29835 10.9407 7.32074 10.9407C7.34312 10.984 7.38789 11.0275 7.43266 11.0492C7.47742 11.0926 7.52219 11.1143 7.56696 11.1143C7.61173 11.136 7.67888 11.136 7.72365 11.1143C7.76841 11.1143 7.83557 11.0926 7.88034 11.0709C7.96987 11.0275 8.03702 10.9407 8.05941 10.8322C8.05941 10.7455 8.05941 10.6152 7.99226 10.5285Z" fill="#4FCCB5"/>
<path d="M23.4372 5.17006C23.4596 5.10497 23.4596 5.03989 23.4596 4.97481C23.4596 4.93142 23.4596 4.88803 23.4596 4.86634C23.4596 4.80126 23.4372 4.73617 23.4372 4.67109C23.4148 4.60601 23.3924 4.54092 23.3699 4.49754C23.3475 4.45415 23.3251 4.43245 23.2803 4.41076C23.2579 4.38907 23.213 4.36737 23.1682 4.34568C23.1234 4.32398 23.0786 4.32398 23.0337 4.34568C22.9889 4.34568 22.9441 4.36737 22.8992 4.38906C22.832 4.43245 22.7648 4.49753 22.7423 4.58431C22.7423 4.60601 22.7423 4.6494 22.7199 4.67109C22.7199 4.73617 22.7423 4.77956 22.7648 4.84464C22.7423 4.82295 22.7423 4.80126 22.7199 4.75787C22.7423 4.80126 22.7648 4.86634 22.7648 4.93141C22.7648 4.90972 22.7648 4.86634 22.7423 4.84464C22.7423 4.90973 22.7423 4.95311 22.7423 5.01819C22.7423 4.9965 22.7423 4.95311 22.7648 4.93141C22.7648 4.95311 22.7648 4.97481 22.7423 5.01819C22.7199 5.10497 22.7423 5.19174 22.7872 5.27853C22.8096 5.32191 22.832 5.3436 22.8768 5.3653C22.8992 5.387 22.9441 5.40869 22.9889 5.43039C23.0786 5.45208 23.1682 5.45207 23.2579 5.387C23.3475 5.32191 23.4148 5.25683 23.4372 5.17006Z" fill="#4FCCB5"/>
<path d="M9.17861 24.2392H9.15623C9.17861 24.2392 9.22338 24.2392 9.24576 24.2174C9.22338 24.2174 9.22338 24.2174 9.20099 24.2174C9.22338 24.2174 9.26815 24.2174 9.29053 24.2392C9.26815 24.2392 9.26815 24.2392 9.24576 24.2174C9.26815 24.2392 9.29053 24.2392 9.3353 24.2609C9.31292 24.2609 9.31291 24.2392 9.29053 24.2392C9.31291 24.2609 9.3353 24.2826 9.35768 24.2826C9.3353 24.2826 9.3353 24.2609 9.31291 24.2392C9.3353 24.2609 9.35768 24.2826 9.35768 24.3043C9.3353 24.2826 9.3353 24.2609 9.3353 24.2392C9.35768 24.2609 9.35768 24.2826 9.38007 24.326C9.3353 24.2392 9.3353 24.1307 9.31291 24.0439C9.29053 23.9355 9.29053 23.8486 9.26815 23.7402C9.24576 23.6751 9.17861 23.5884 9.11146 23.545C9.04431 23.5016 8.93238 23.4799 8.84285 23.5016C8.75331 23.5233 8.68616 23.5667 8.64139 23.6534C8.61901 23.6751 8.61901 23.6968 8.59663 23.7402C8.57424 23.8052 8.57424 23.8486 8.59663 23.9138C8.61901 24.0873 8.64139 24.2609 8.68616 24.4127C8.70854 24.4778 8.73093 24.5212 8.75331 24.5862C8.7757 24.608 8.7757 24.6297 8.79808 24.6514C8.82046 24.6731 8.82046 24.6948 8.84285 24.7165C8.91 24.7598 8.97715 24.8249 9.06669 24.8249C9.11146 24.8249 9.15622 24.8466 9.17861 24.8466C9.22338 24.8466 9.26815 24.8466 9.31291 24.8249C9.40245 24.8032 9.4696 24.7598 9.51437 24.6731C9.55914 24.608 9.58152 24.4995 9.55914 24.4127C9.53676 24.326 9.49199 24.2609 9.40245 24.2174C9.38007 24.2392 9.26815 24.2174 9.17861 24.2392Z" fill="#4FCCB5"/>
</g>
<defs>
<clipPath id="clip0_1_9">
<rect width="37" height="23.2558" fill="white" transform="translate(0 0.744202)"/>
</clipPath>
</defs>
</svg>
