<svg width="97" height="68" viewBox="0 0 97 68" fill="none" xmlns="http://www.w3.org/2000/svg">
<path d="M81.1887 33.623C86.2467 36.3658 92.6967 34.6591 95.6057 29.7829C98.4517 24.9068 96.6807 18.6896 91.6217 15.8858C86.5637 13.143 80.1767 14.7887 77.3307 19.604L72.9047 18.6896C74.3587 9.48583 72.0827 0.0382271 66.644 -7.58081L72.1457 -11.177C72.5877 -10.7504 73.0937 -10.3846 73.6627 -10.1408C76.5717 -8.73895 80.1137 -9.897 81.5677 -12.7008C83.0217 -15.5047 81.8207 -18.9179 78.9117 -20.3199C76.0027 -21.7218 72.4617 -20.5637 71.0077 -17.7599C70.2484 -16.297 70.1852 -14.6513 70.7547 -13.1885L65.1263 -9.47035C62.1542 -13.0666 58.4865 -16.1751 54.06 -18.6132C52.7953 -19.2836 51.5306 -19.8932 50.2659 -20.4418L51.91 -24.7084C56.0203 -24.2208 60.1939 -26.1104 62.4072 -29.7674C65.2528 -34.6437 63.4822 -40.8608 58.4233 -43.6646C53.3645 -46.4684 46.9144 -44.7008 44.0055 -39.8246C41.1599 -34.9485 42.8673 -28.7922 47.9262 -25.9885L46.3453 -21.7828C41.1599 -23.3065 35.7849 -23.6722 30.5995 -23.0627L29.8407 -28.4875C30.9789 -28.8532 31.9907 -29.5846 32.6231 -30.6818C34.0142 -33.0589 33.1289 -35.9846 30.726 -37.3256C28.2598 -38.6665 25.2245 -37.8132 23.8333 -35.497C22.4421 -33.1199 23.3274 -30.1941 25.7303 -28.8532C26.2362 -28.5485 26.8054 -28.4266 27.3112 -28.3047L28.1333 -22.697C25.4142 -22.2094 22.7582 -21.417 20.2288 -20.3199C19.47 -21.7828 18.2685 -23.0017 16.6876 -23.8551C12.4508 -26.1713 7.01254 -24.7084 4.54633 -20.6246C2.45953 -17.1503 3.28164 -12.8227 6.19043 -10.1408C4.73603 -8.49506 3.47134 -6.72752 2.33303 -4.77704C1.13163 -2.76558 0.183035 -0.632259 -0.575766 1.44012L-5.50817 -0.327492C-4.81256 -4.95988 -7.15227 -9.71415 -11.7053 -11.9694C-17.4598 -14.8951 -24.6054 -12.7617 -27.6407 -7.15417C-30.6761 -1.60749 -28.4628 5.28012 -22.6451 8.20584C-16.8907 11.1315 -9.87147 8.99821 -6.77287 3.57346L-1.65077 5.40202C-3.04197 11.4973 -2.78907 17.7754 -0.955166 23.6267L-4.81257 24.9068C-5.25527 24.2973 -5.82437 23.7486 -6.51997 23.322C-8.98617 21.9811 -12.0215 22.8344 -13.4127 25.1506C-14.8039 27.5277 -13.9186 30.4535 -11.5156 31.7944C-9.04937 33.1354 -6.01406 32.282 -4.62287 29.9658C-4.11697 29.1125 -3.92727 28.1372 -3.99047 27.223L-0.196365 26.0039C2.26983 32.4039 6.56993 38.1944 12.514 42.522L9.66843 47.642C5.17873 46.3011 0.183035 48.0687 -2.21987 52.1524C-5.00227 56.8458 -3.29497 62.8191 1.57423 65.4401C6.44344 68.122 12.6405 66.4763 15.3597 61.7829C17.7626 57.6991 16.7508 52.6401 13.2729 49.6534L15.992 44.7772C16.245 44.8991 16.4979 45.082 16.6876 45.2039C23.77 49.0439 31.5481 50.5068 39.0731 49.7753L40.4643 54.4077C39.1364 54.8953 37.9981 55.7486 37.1128 56.9068C34.8363 60.0153 35.6584 64.3429 38.8834 66.5372C42.1084 68.7315 46.5982 67.9391 48.8747 64.8305C51.1512 61.722 50.3291 57.3944 47.1041 55.2001C45.8394 54.3468 44.3849 53.981 42.9937 53.981L41.6658 49.4705C48.685 48.3734 55.3248 45.3258 60.763 40.6934L64.1778 44.1068C63.166 45.8135 63.4822 48.0078 65.1263 49.2877C66.8969 50.7506 69.5529 50.5068 71.0707 48.7391C72.5877 47.0325 72.3357 44.4725 70.5017 43.0096C69.2367 41.9734 67.4661 41.8515 66.0116 42.461L62.5337 39.0477C64.8102 36.7924 66.7705 34.2934 68.4778 31.4287C70.122 28.6859 71.3237 25.7601 72.1457 22.8344L76.0657 23.6877C75.3707 27.4668 77.3307 31.5506 81.1887 33.623ZM5.87433 -19.8323C7.83463 -23.1236 12.1979 -24.2818 15.6126 -22.4532C16.8773 -21.7828 17.8258 -20.8075 18.395 -19.6494C14.2214 -17.638 10.364 -14.8951 7.13903 -11.4818C4.86253 -13.5542 4.23013 -17.0284 5.87433 -19.8323Z" fill="#4FCCB5"/>
</svg>
